<svg id="Layer_1" data-name="Layer 1" xmlns="http://www.w3.org/2000/svg" xmlns:xlink="http://www.w3.org/1999/xlink" viewBox="0 0 170 170"><defs><style>.cls-1{fill:#eb8d8d;}.cls-2{fill:url(#linear-gradient);}.cls-3{fill:#cb5127;}.cls-4{fill:#29293d;}.cls-5{fill:url(#linear-gradient-2);}.cls-6{fill:url(#linear-gradient-3);}.cls-7{fill:#242333;}.cls-8{fill:#f26322;}.cls-9{fill:url(#linear-gradient-4);}.cls-10{fill:#010101;}.cls-11,.cls-13{fill:none;}.cls-11{stroke:#fff;}.cls-11,.cls-12,.cls-13{stroke-linecap:round;stroke-miterlimit:10;stroke-width:0.25px;}.cls-12{fill:#f7a9ab;}.cls-12,.cls-13{stroke:#010101;}.cls-14{fill:#faa628;}.cls-15{fill:#ba802b;}.cls-16{fill:#e87658;}.cls-17{fill:#3c4380;}.cls-18{fill:#31346b;}.cls-19{fill:#fff;}</style><linearGradient id="linear-gradient" x1="-542.57" y1="402.27" x2="-542.1" y2="402.27" gradientTransform="matrix(7.04, 0, 0, -3.28, 3964.05, 1333.38)" gradientUnits="userSpaceOnUse"><stop offset="0" stop-color="#f9baba"/><stop offset="1" stop-color="#f5928f"/></linearGradient><linearGradient id="linear-gradient-2" x1="-578.28" y1="496.57" x2="-577.8" y2="496.57" gradientTransform="matrix(17.93, 0, 0, -21.02, 10393.31, 10583.8)" xlink:href="#linear-gradient"/><linearGradient id="linear-gradient-3" x1="-580.93" y1="494.71" x2="-580.46" y2="494.71" gradientTransform="matrix(18.09, 0, 0, -20.13, 10575.11, 10079.11)" xlink:href="#linear-gradient"/><linearGradient id="linear-gradient-4" x1="-607.98" y1="503.35" x2="-608.72" y2="502.49" gradientTransform="matrix(142.8, 0, 0, -91.49, 86980.7, 46034.67)" gradientUnits="userSpaceOnUse"><stop offset="0" stop-color="#e1483d"/><stop offset="1" stop-color="#e9625a"/></linearGradient></defs><g id="Group_84" data-name="Group 84"><g id="Group_76" data-name="Group 76"><path id="Path_349" data-name="Path 349" class="cls-1" d="M108.55,38.27,137.79,15.4a.64.64,0,0,0,.23-.33l1.81-5.92a.67.67,0,0,1,.3-.38l1.18-.67A.74.74,0,0,1,141.7,8l3.66.36a.64.64,0,0,1,.58.54l.28,1.72a.61.61,0,0,1-.11.47l-.49.71a.66.66,0,0,0,0,.69h0a.65.65,0,0,1-.09.75,13.33,13.33,0,0,1-4.57,3.22.7.7,0,0,0-.23.15l-28,29.49C112.43,46.39,108.24,38.52,108.55,38.27Z"/><path id="Path_350" data-name="Path 350" class="cls-2" d="M142.09,13.19l-.07,0A.15.15,0,0,1,142,13c0-.07.9-1.62,2-1.28.85.26,1.09.16,1.09.16a.14.14,0,0,1,.2,0h0a.16.16,0,0,1-.05.21c-.07,0-.36.17-1.34-.13s-1.63,1.12-1.63,1.14A.17.17,0,0,1,142.09,13.19Z"/><path id="Path_351" data-name="Path 351" class="cls-3" d="M95.15,48.65l4.78,11,40.77-43a13.85,13.85,0,0,0-2.91-1.24C126.08,23.85,95.15,48.65,95.15,48.65Z"/></g><g id="Group_77" data-name="Group 77"><path id="Path_352" data-name="Path 352" class="cls-4" d="M22.2,152.29a6.93,6.93,0,0,1,1.25-3.65c-1.24.4-1.71,1.33-2,3.81-.35,3-1,10.93-1.13,12.69a3.65,3.65,0,0,0,1.13,3.21c.18.19.47.1.81-.17a5.85,5.85,0,0,1-1.12-2.56C20.92,164.44,21.91,156.19,22.2,152.29Z"/></g><path id="Path_356" data-name="Path 356" class="cls-5" d="M30.35,143.14c-.37.5-3.14,5.53-3.74,6.63a1.72,1.72,0,0,0-.2.59,2.49,2.49,0,0,0,1.19,2.44,1.67,1.67,0,0,0,2.24-.38l5-6.63Z"/><path id="Path_357" data-name="Path 357" class="cls-6" d="M69.39,116.79c-.46.42-4,4.93-4.79,5.91a1.61,1.61,0,0,0-.29.55,2.46,2.46,0,0,0,.76,2.6,1.66,1.66,0,0,0,2.27,0l5.41-6.24Z"/><path id="Path_358" data-name="Path 358" class="cls-4" d="M76.17,93c0-1.4,8-.9,15-1.71A4,4,0,0,1,94.51,98L73.22,120a1.67,1.67,0,0,1-1.72.43,10,10,0,0,1-3.13-1.62,1.53,1.53,0,0,1-.28-2.06l9.79-13.93L69,105.37,35.07,147.28a1.75,1.75,0,0,1-2.3.39,14.4,14.4,0,0,1-3.21-2.61,1.65,1.65,0,0,1-.09-1.95c3.73-5.71,24.05-36.83,25-40.06,1.06-3.56,5-10.08,8.6-10.31S76.17,93,76.17,93Z"/><path id="Path_359" data-name="Path 359" class="cls-7" d="M78.41,102.61a.22.22,0,0,1-.22-.23.23.23,0,0,1,.17-.22l8-2.13a.23.23,0,0,1,.28.17.22.22,0,0,1-.16.27l-8,2.13Z"/><path id="Path_360" data-name="Path 360" class="cls-7" d="M69.75,104.79a.24.24,0,0,1-.23-.23.34.34,0,0,1,.06-.15l2-2.18a.23.23,0,0,1,.35.29l0,0-2,2.18A.24.24,0,0,1,69.75,104.79Z"/><path id="Path_361" data-name="Path 361" class="cls-8" d="M99.51,48.88A15.4,15.4,0,0,1,103,60.69a11.78,11.78,0,0,1-2.43,6L79.17,94.37a3,3,0,0,1-2,1.15c-3.15.38-11.53,1.14-17.46-.83a.79.79,0,0,1-.49-1,.42.42,0,0,1,.06-.14L78.74,59.28,90.53,45.55A7.82,7.82,0,0,1,99.51,48.88Z"/><path id="Path_362" data-name="Path 362" class="cls-3" d="M94.51,60.22,83,54.31s-8.23,8.12-10.34,19.15a30.13,30.13,0,0,1,11.13,3C84.72,71.23,94.51,60.22,94.51,60.22Z"/><path id="Path_363" data-name="Path 363" class="cls-3" d="M104,79.49s-14.38,8.12-19.23,1.19a5.44,5.44,0,0,1-1-4.24,30.13,30.13,0,0,0-11.13-3,15.22,15.22,0,0,0,1.65,10.43C82.79,99.44,105.9,83,105.9,83Z"/><path id="Path_364" data-name="Path 364" class="cls-1" d="M104.68,83.63a1.66,1.66,0,0,1-2-1.19.44.44,0,0,1,0-.1,14,14,0,0,1-.36-4.72c.44-1.6,1.3-3.65,4.14-3.19a41.47,41.47,0,0,1,6.21,1.65,1.63,1.63,0,0,1-2.33,1.41l1.34,1s-.19,1.66-2,.78l1.25,1.37a1.45,1.45,0,0,1-2,.59l-.16-.1C107.64,80.45,107,83,104.68,83.63Z"/><path id="Path_365" data-name="Path 365" class="cls-9" d="M32.16,81.59a.79.79,0,0,0-.61.91,1.07,1.07,0,0,0,.07.19c1,2.1,4.1,6.72,10.41,5.26,8.07-1.86,32.7-20.48,38.27-25.57S93.27,51,96.88,51.84s1.43-1.21-1.07-2.89-3.43-4.14-1.57-3.68c0,0-4.49-1.46-11.36,2.32-6.7,3.7-39.45,16.33-50.42,12.68a.69.69,0,0,0-.88.44.36.36,0,0,0,0,.1c-.44,2.5-1.1,10.32,5.31,19.11A21.3,21.3,0,0,1,32.16,81.59Z"/><g id="Group_79" data-name="Group 79"><g id="Group_8146" data-name="Group 8146"><path id="Path_10176" data-name="Path 10176" class="cls-1" d="M94.87,45.66c.29.21-2.87.89-.44,2.38l4.35,3.63c.43-.18,2.43-8.4,2.89-8.59l1.28-.57a1.47,1.47,0,0,0,.8-1v0l0-.43a0,0,0,0,0,0,0c.27-4.1-.76-5.2-1.92-5.84a5.23,5.23,0,0,1-2-1.36C98.29,31,95,30.4,92.17,31.54a7.94,7.94,0,0,0-2,1.17,6.84,6.84,0,0,0-1.54,1.72h0a7.48,7.48,0,0,0-.78,1.7A7.06,7.06,0,0,0,92.41,45a6.5,6.5,0,0,0,1.52.3A2,2,0,0,1,94.87,45.66Z"/><path id="Path_10177" data-name="Path 10177" class="cls-10" d="M88.69,42.2a7,7,0,0,0,5.24,3.1,2,2,0,0,1,.94.36l.7-3.49s-1.48-.34-1.42-2.41c0-1.43,1.2-1.22,1.91-.95a.24.24,0,0,0,.29-.13.25.25,0,0,0,0-.19,6.73,6.73,0,0,0-3-3.06l-1.16-3.9a8.59,8.59,0,0,0-2,1.17,6.86,6.86,0,0,0-1.54,1.73h0l-.78,1.71A7.07,7.07,0,0,0,88.69,42.2Z"/><path id="Path_10180" data-name="Path 10180" class="cls-11" d="M98.54,38.49l-4.18.5,1.69,3.61,5.25-.33"/><g id="Group_8145" data-name="Group 8145"><path id="Path_10181" data-name="Path 10181" class="cls-12" d="M95.48,39.1s-2.8-1.38-2.93.76,3.22,4.58,4.4,2"/><path id="Path_10182" data-name="Path 10182" class="cls-13" d="M95.83,41s-1.43-2.17-2.45-.8"/><path id="Path_10183" data-name="Path 10183" class="cls-13" d="M95,41.26s-.85-.7-.41-1.42"/></g><path id="Path_10184" data-name="Path 10184" class="cls-14" d="M101.67,43.08l1.28-.57a1.52,1.52,0,0,0,.8-1v0l0-.43a0,0,0,0,0,0,0c.27-4.1-.76-5.2-1.92-5.84-.59.56-2.49,2.32-3.29,2.88C97.3,39,98.47,41.25,101.67,43.08Z"/></g><path id="Path_10188" data-name="Path 10188" class="cls-15" d="M92.6,46.85a2.05,2.05,0,0,0,1.68-.33l4-2.93A2.57,2.57,0,0,0,98.85,40l-4.28-5.87L88,38.93Z"/><path id="Path_10190" data-name="Path 10190" class="cls-16" d="M84.61,37.48A9.11,9.11,0,0,1,94,28.73a9.92,9.92,0,0,1,5.37,1.89l-5.23,3.81,4.27,5.86a2.56,2.56,0,0,1-.55,3.58l-4,2.93a2,2,0,0,1-1.68.33,9.63,9.63,0,0,1-5.69-3.32A9.89,9.89,0,0,1,84.61,37.48Z"/><path id="Path_10191" data-name="Path 10191" class="cls-17" d="M92.3,31.87l1.88,2.56,6.88-5a.44.44,0,0,0-.37-.79l-3.52.77-.55-.67Z"/><path id="Path_10192" data-name="Path 10192" class="cls-18" d="M92.3,31.87,93.86,34a9.88,9.88,0,0,1,3.31-4.61l-.55-.67Z"/><path id="Path_10193" data-name="Path 10193" class="cls-19" d="M93.54,32.2a.33.33,0,0,0,.46.07.32.32,0,0,0,.07-.46.33.33,0,0,0-.46-.08h0A.32.32,0,0,0,93.54,32.2Z"/></g></g><path id="Path_353" data-name="Path 353" class="cls-4" d="M30.35,150l-2.16-2.81a17.62,17.62,0,0,1-3.94,1.28,5.45,5.45,0,0,0-.8.18,7,7,0,0,0-1.25,3.66c-.29,3.9-1.28,12.15-1.06,13.33a5.9,5.9,0,0,0,1.12,2.56,11.15,11.15,0,0,0,2.32-3.2c1-2,4.55-8,5.37-10.22A10.62,10.62,0,0,0,30.35,150Z"/><path id="Path_353-2" data-name="Path 353" class="cls-4" d="M67.4,125.36l-2.38-3a16.25,16.25,0,0,1-3.72,1.46,5.45,5.45,0,0,0-.8.18,7,7,0,0,0-1.25,3.66c-.29,3.9-1.28,12.15-1,13.33a5.67,5.67,0,0,0,1.12,2.56,11.34,11.34,0,0,0,2.31-3.2c1-2,4.55-8,5.37-10.22A10.65,10.65,0,0,0,67.4,125.36Z"/></svg>