<svg id="Layer_1" data-name="Layer 1" xmlns="http://www.w3.org/2000/svg" xmlns:xlink="http://www.w3.org/1999/xlink" viewBox="0 0 170 126.49"><defs><style>.cls-1{fill:url(#linear-gradient);}.cls-2{fill:#eb8d8d;}.cls-3{fill:#29293d;}.cls-4{fill:#010101;}.cls-5,.cls-7{fill:none;}.cls-5{stroke:#fff;}.cls-5,.cls-6,.cls-7{stroke-linecap:round;stroke-miterlimit:10;stroke-width:0.25px;}.cls-6{fill:#f7a9ab;}.cls-6,.cls-7{stroke:#010101;}.cls-8{fill:#faa628;}.cls-9{fill:#cb5127;}.cls-10{fill:#3e3e3e;}.cls-11{fill:#fff;}.cls-12{fill:#ba802b;}.cls-13{fill:#e87658;}.cls-14{fill:#3c4380;}.cls-15{fill:#31346b;}.cls-16{fill:#f9cb28;}.cls-17{fill:#3f394f;}.cls-18{fill:#f26322;}</style><linearGradient id="linear-gradient" x1="-331.2" y1="337.36" x2="-332.14" y2="336.26" gradientTransform="matrix(128.7, 0, 0, -82.45, 42778.92, 27766.78)" gradientUnits="userSpaceOnUse"><stop offset="0" stop-color="#e1483d"/><stop offset="1" stop-color="#e9625a"/></linearGradient></defs><g id="Group_75" data-name="Group 75"><path id="Path_348" data-name="Path 348" class="cls-1" d="M6.27,62.89a.89.89,0,0,0-.7,1,1,1,0,0,0,.08.23c1.19,2.4,4.71,7.71,12,6,9.28-2.15,37.57-23.53,44-29.38s14.89-13.12,19-12.11,1.65-1.38-1.23-3.31-3.94-4.77-1.8-4.24c0,0-5.16-1.67-13,2.67-7.7,4.25-45.33,18.76-57.92,14.56a.81.81,0,0,0-1,.52.36.36,0,0,0,0,.11c-.51,2.87-1.27,11.85,6.1,22a24.69,24.69,0,0,1-5.41,1.91Z"/><path id="Path_10172" data-name="Path 10172" class="cls-2" d="M102.14,97l0-6.7,6,0,0,7.39-5.4.56Z"/><g id="Group_8144" data-name="Group 8144"><path id="Path_10173" data-name="Path 10173" class="cls-3" d="M100.5,106.72l20.29-.09v-1a4.58,4.58,0,0,0-3.38-4.41c-3.34-.91-8-2.69-7.9-5.52h0a2.65,2.65,0,0,0-3,1.69l-4.69-.85A32.73,32.73,0,0,0,100.5,105C100.48,105.69,100.48,106.3,100.5,106.72Z"/><path id="Path_10174" data-name="Path 10174" class="cls-3" d="M100.5,106.72l20.29-.09v-1a4.59,4.59,0,0,0-.06-.73l-20.24.1C100.48,105.69,100.49,106.3,100.5,106.72Z"/></g><path id="Path_10175" data-name="Path 10175" class="cls-3" d="M63.16,59.4v3.52a6.64,6.64,0,0,0,6.65,6.6h0l31.1-.14L101,94.84l10.44,0-.12-27.6a8,8,0,0,0-8-8h0Z"/><g id="Group_8146" data-name="Group 8146"><path id="Path_10176" data-name="Path 10176" class="cls-2" d="M76.17,20.34a2.33,2.33,0,0,1,.08,1.2l-.85,4.39,6.43,1.26.8-5.05c.52.13,1.06.24,1.62.37s1.06.23,1.57.32a1.65,1.65,0,0,0,1.4-.36h0l.32-.38a0,0,0,0,0,0,0c3-3.64,2.79-5.37,2.14-6.74a5.87,5.87,0,0,1-1-2.63c.49-3.75-2.19-6.48-5.59-7.33a9.47,9.47,0,0,0-2.65-.26,7.78,7.78,0,0,0-2.6.57h0A8.11,8.11,0,0,0,73.3,16.18a8.23,8.23,0,0,0,2.24,3.19,2.1,2.1,0,0,1,.63,1Z"/><path id="Path_10177" data-name="Path 10177" class="cls-4" d="M72.75,13a8.12,8.12,0,0,0,2.79,6.42,2.1,2.1,0,0,1,.63,1l3-2.78s-1.15-1.32.3-3.2c1-1.31,1.94-.33,2.42.4a.26.26,0,0,0,.35.07.24.24,0,0,0,.11-.19,7.71,7.71,0,0,0-.73-4.86l1.54-4.41a9.44,9.44,0,0,0-2.65-.27,8,8,0,0,0-2.6.57h0L76,6.73A8.17,8.17,0,0,0,72.75,13Z"/><path id="Path_10180" data-name="Path 10180" class="cls-5" d="M84.42,16.13l-4.23-2.35-.85,4.5,5.1,3.23"/><g id="Group_8145" data-name="Group 8145"><path id="Path_10181" data-name="Path 10181" class="cls-6" d="M81.16,14.63s-1.68-3.16-3.24-1.25-.08,6.42,2.78,4.78"/><path id="Path_10182" data-name="Path 10182" class="cls-7" d="M80.2,16.65s.13-3-1.74-2.4"/><path id="Path_10183" data-name="Path 10183" class="cls-7" d="M79.23,16.29s-.32-1.21.57-1.59"/></g><path id="Path_10184" data-name="Path 10184" class="cls-8" d="M84.25,22.51c.53.12,1.06.23,1.57.32a1.65,1.65,0,0,0,1.4-.36h0l.33-.38a0,0,0,0,0,0,0c3-3.64,2.79-5.37,2.14-6.74-.92.12-3.88.48-5,.47C82.93,15.76,82.49,18.65,84.25,22.51Z"/></g><path id="Path_10185" data-name="Path 10185" class="cls-9" d="M72.27,25.52a13.49,13.49,0,0,1,9.65,3h0c.39.27.76.55,1.15.85.61-1.31,2-4.63,2-4.63l-10.37-3Z"/><g id="Group_8147" data-name="Group 8147"><circle id="Ellipse_107" data-name="Ellipse 107" class="cls-4" cx="146.47" cy="111.37" r="14.73"/><path id="Path_10207" data-name="Path 10207" class="cls-10" d="M146.43,103a8.42,8.42,0,1,0,8.46,8.38h0a8.42,8.42,0,0,0-8.46-8.38Z"/><path id="Path_10186" data-name="Path 10186" class="cls-11" d="M143.66,111.38a2.81,2.81,0,1,0,2.8-2.82h0A2.82,2.82,0,0,0,143.66,111.38Z"/></g><path id="Path_10187" data-name="Path 10187" class="cls-3" d="M141.82,103l21.11-.09s-6.28-16.59-26.79-16.5Z"/><path id="Path_10188" data-name="Path 10188" class="cls-12" d="M73.26,19.91a2.36,2.36,0,0,0,1.79.82l5.71,0a2.94,2.94,0,0,0,2.93-2.95h0l0-8.34-9.32,0Z"/><path id="Path_10190" data-name="Path 10190" class="cls-13" d="M72.13,5.82A10.44,10.44,0,0,1,86.8,4a10.12,10.12,0,0,1,1.74,1.72,10.88,10.88,0,0,1,2,3.64l-7.44,0,0,8.33A2.93,2.93,0,0,1,80.2,20.7l-5.71,0a2.34,2.34,0,0,1-1.78-.82A11.14,11.14,0,0,1,69.64,13a11.3,11.3,0,0,1,2.49-7.16Z"/><path id="Path_10191" data-name="Path 10191" class="cls-14" d="M83.07,5.77l0,3.65,9.79-.05a.51.51,0,0,0,.5-.52.5.5,0,0,0-.31-.46L89.28,6.74l-.07-1Z"/><path id="Path_10192" data-name="Path 10192" class="cls-15" d="M83.07,5.77l0,3a11.46,11.46,0,0,1,6.19-2.07l-.07-1Z"/><path id="Path_10193" data-name="Path 10193" class="cls-11" d="M84,6.9a.38.38,0,1,0,.38-.38h0A.39.39,0,0,0,84,6.9Z"/><path id="Path_10194" data-name="Path 10194" class="cls-16" d="M127,45.46l0,10.39a5.34,5.34,0,0,0,4-5.21h0a5.34,5.34,0,0,0-4-5.17Z"/><path id="Path_10195" data-name="Path 10195" class="cls-17" d="M113.52,49.19c1.19,1.93,2.55,4.25,4,6.88l8.21,0a1.94,1.94,0,0,0,.34,0,4.85,4.85,0,0,0,1-.16l0-10.39a4.94,4.94,0,0,0-1-.16,1.93,1.93,0,0,0-.34,0l-10,0a2.55,2.55,0,0,0-2.53,2.55,2.52,2.52,0,0,0,.37,1.31Z"/><path id="Path_10196" data-name="Path 10196" class="cls-3" d="M117.51,56.07c.46.84.93,1.72,1.4,2.62l4.45,0c-.53-.87-1.08-1.74-1.64-2.62Z"/><path id="Path_10197" data-name="Path 10197" class="cls-17" d="M114.43,61.44c4.67,6.75,15.82,25.2,13.94,45.15-.11,1.15-.26,2.3-.46,3.44L141.5,110a4,4,0,0,0,4-4,3.93,3.93,0,0,0-.21-1.27,228.52,228.52,0,0,0-21.95-46l-7.52,0a1.74,1.74,0,0,0-1.72,1.76,1.66,1.66,0,0,0,.3,1Z"/><path id="Path_10208" data-name="Path 10208" class="cls-17" d="M127,44.4h-1l.06,12.49h1Z"/><path id="Path_10198" data-name="Path 10198" class="cls-18" d="M63.29,68.2c9.4-2.42,19-9,19-9l-.9-1.63c2-1.09.79-3.46.85-8s.52-8.48.52-8.48h0c9,5.15,29.17,9.35,29.17,9.35l1.16-4.22a122.19,122.19,0,0,1-19-8.71c-4.89-2.83-8.17-6-11-8.17-.4-.3-.77-.58-1.15-.85h0c-.33-.25-.66-.49-1-.72h0a13.27,13.27,0,0,0-8.65-2.26C71.52,26.71,70.7,28,70,29.06c-.59.91-1.08,1.66-1.38,2.09,0,0,0,0,0,0C64.52,36.36,61.23,47,63.29,68.2Z"/><path id="Path_10199" data-name="Path 10199" class="cls-17" d="M121.32,50.45h.09a.38.38,0,0,0,.28-.45l-2.76-12.18a.38.38,0,0,0-.48-.24.37.37,0,0,0-.26.4L121,50.16A.38.38,0,0,0,121.32,50.45Z"/><path id="Path_10200" data-name="Path 10200" class="cls-2" d="M119,52.58h0a1.32,1.32,0,0,0,1.11,1.51,1.22,1.22,0,0,0,.33,0c1.18-.13,2.62-.84,2.94-3.43.57-4.56-5.5-5.07-7.76-3.47L112,46.08l-.76,3.44,3.52.91s1.92,3.37,3.58,2.15S119,52.58,119,52.58Z"/><circle id="Ellipse_109" data-name="Ellipse 109" class="cls-17" cx="119.75" cy="50.69" r="2.35"/><path id="Path_10201" data-name="Path 10201" class="cls-9" d="M82.78,41.09h0c9,5.15,29.17,9.35,29.17,9.35l1.16-4.22a122.19,122.19,0,0,1-19.05-8.71c-4.89-2.83-8.17-6-11-8.17-.39-.3-.76-.58-1.15-.85h0a12,12,0,0,0-1-.71h0C75.61,31.53,76.63,37.76,82.78,41.09Z"/><path id="Rectangle_17341" data-name="Rectangle 17341" class="cls-17" d="M116.94,33.54h1.19a2,2,0,0,1,2,2h0v2.84a2,2,0,0,1-2,2H117l0-6.87Z"/><g id="Group_8148" data-name="Group 8148"><circle id="Ellipse_110" data-name="Ellipse 110" class="cls-4" cx="59.51" cy="111.76" r="14.73"/><circle id="Ellipse_111" data-name="Ellipse 111" class="cls-10" cx="59.51" cy="111.76" r="8.42"/><circle id="Ellipse_112" data-name="Ellipse 112" class="cls-11" cx="59.51" cy="111.76" r="2.81"/></g><path id="Path_10202" data-name="Path 10202" class="cls-17" d="M30.62,110.47l97.3-.44c.19-1.14.35-2.29.45-3.44l-32.87.15s-4.42-31-14.66-30.91l-23.32.1C33.39,76,30.62,110.47,30.62,110.47Z"/><path id="Path_10203" data-name="Path 10203" class="cls-3" d="M37.81,110.44l43.39-.2a21.74,21.74,0,0,0-43.39.2Z"/><path id="Path_10204" data-name="Path 10204" class="cls-3" d="M74.36,75.85l8.45,0a2,2,0,0,0,2-2h0a5.13,5.13,0,0,0-5.14-5.1l-8,0c-8.73,0-5-2.87-11.13-2.84l-4.93,0a2.36,2.36,0,0,0-2.34,2.37h0a7.63,7.63,0,0,0,7.66,7.59h0Z"/><path id="Rectangle_17342" data-name="Rectangle 17342" class="cls-8" d="M30.36,22l22.81-.1a9.21,9.21,0,0,1,9.25,9.17l.12,27.12A4.52,4.52,0,0,1,58,62.78h0L27,62.92h0L26.8,25.64A3.58,3.58,0,0,1,30.36,22Z"/><path id="Path_10205" data-name="Path 10205" class="cls-3" d="M58.38,77.84,73,77.77a.61.61,0,0,0,.6-.61.63.63,0,0,0-.61-.61l-13.44.07,0-5.19a7.27,7.27,0,0,0-7.29-7.23l-24.9.12a.6.6,0,0,0-.61.6.61.61,0,0,0,.61.61h0l24.9-.11a6,6,0,0,1,6.07,6Z"/></g></svg>