<svg id="Layer_1" data-name="Layer 1" xmlns="http://www.w3.org/2000/svg" xmlns:xlink="http://www.w3.org/1999/xlink" viewBox="0 0 170 170"><defs><style>.cls-1{fill:url(#linear-gradient);}.cls-2{fill:url(#linear-gradient-2);}.cls-3{fill:#eb8d8d;}.cls-4{fill:#010101;}.cls-5,.cls-7{fill:none;}.cls-5{stroke:#fff;}.cls-5,.cls-6,.cls-7{stroke-linecap:round;stroke-miterlimit:10;stroke-width:0.25px;}.cls-6{fill:#f7a9ab;}.cls-6,.cls-7{stroke:#010101;}.cls-8{fill:#faa628;}.cls-9{fill:#ba802b;}.cls-10{fill:#e87658;}.cls-11{fill:#3c4380;}.cls-12{fill:#31346b;}.cls-13{fill:#fff;}.cls-14{fill:#29293d;}.cls-15{fill:url(#linear-gradient-3);}.cls-16{fill:#111;}.cls-17{fill:#cb5127;}.cls-18{fill:#701f33;}.cls-19{fill:#f26322;}.cls-20{fill:url(#linear-gradient-4);}.cls-21{fill:#292929;}.cls-22{fill:url(#linear-gradient-5);}</style><linearGradient id="linear-gradient" x1="-383.61" y1="500.05" x2="-383.03" y2="500.05" gradientTransform="matrix(16.79, -6.75, -7.5, -18.68, 10263.97, 6900.88)" gradientUnits="userSpaceOnUse"><stop offset="0" stop-color="#f9baba"/><stop offset="1" stop-color="#f5928f"/></linearGradient><linearGradient id="linear-gradient-2" x1="-382.58" y1="499.75" x2="-382.04" y2="499.75" xlink:href="#linear-gradient"/><linearGradient id="linear-gradient-3" x1="46.02" y1="84.71" x2="110.81" y2="84.71" gradientUnits="userSpaceOnUse"><stop offset="0" stop-color="#e1483d"/><stop offset="1" stop-color="#e9625a"/></linearGradient><linearGradient id="linear-gradient-4" x1="93.48" y1="41.68" x2="97.09" y2="41.68" xlink:href="#linear-gradient-3"/><linearGradient id="linear-gradient-5" x1="71.88" y1="43.51" x2="86.02" y2="43.51" xlink:href="#linear-gradient-3"/></defs><path id="Path_357" data-name="Path 357" class="cls-1" d="M74.61,141.69c-.33.7-2.35,7.56-2.79,9.05a2.22,2.22,0,0,0-.08.77,3.09,3.09,0,0,0,2.09,2.65c1,.4,1.48-.51,1.94-1.5l4-9.28Z"/><path id="Path_357-2" data-name="Path 357" class="cls-2" d="M93,139.43c-.33.7-.21,10.44-.65,11.92-.07.25,1.52,2.45,1.54,2.71.1,1.22-2.83-2.55-1.67-2.16s4.7.61,5.16-.38l.81-10.4Z"/><g id="Group_79" data-name="Group 79"><g id="Group_8146" data-name="Group 8146"><path id="Path_10176" data-name="Path 10176" class="cls-3" d="M86.85,33.82c.17.41-7.69,6.31-4.34,7.36l9.24,5c.58.09,3.4-10.81,4-10.71s1.17.16,1.73.22A1.84,1.84,0,0,0,99,35.19h0c.1-.15.2-.29.32-.44s0,0,0,0c2.94-4.19,2.56-6,1.74-7.46a6.57,6.57,0,0,1-1.27-2.76c.22-4.09-2.91-6.81-6.65-7.44A10.37,10.37,0,0,0,90.25,17a8.56,8.56,0,0,0-2.76.83h0a9.4,9.4,0,0,0-1.94,1.3,8.79,8.79,0,0,0-.87,12.39,8.4,8.4,0,0,0,1.42,1.31A2.38,2.38,0,0,1,86.85,33.82Z"/><path id="Path_10177" data-name="Path 10177" class="cls-4" d="M82.53,26.13a8.78,8.78,0,0,0,3.56,6.7,2.32,2.32,0,0,1,.76,1l3-3.26s-1.35-1.32.06-3.48c1-1.5,2.06-.52,2.64.22a.27.27,0,0,0,.49-.16,8.4,8.4,0,0,0-1.2-5.2l1.29-4.89A10,10,0,0,0,90.25,17a8.27,8.27,0,0,0-2.76.84h0l-1.94,1.3A8.82,8.82,0,0,0,82.53,26.13Z"/><path id="Path_10180" data-name="Path 10180" class="cls-5" d="M95.4,28.57l-4.77-2.18-.53,4.94,5.79,3.05"/><g id="Group_8145" data-name="Group 8145"><path id="Path_10181" data-name="Path 10181" class="cls-6" d="M91.75,27.23s-2.08-3.27-3.6-1.08.46,7,3.41,4.93"/><path id="Path_10182" data-name="Path 10182" class="cls-7" d="M90.89,29.49s-.12-3.23-2.09-2.44"/><path id="Path_10183" data-name="Path 10183" class="cls-7" d="M89.81,29.19s-.45-1.29.48-1.77"/></g><path id="Path_10184" data-name="Path 10184" class="cls-8" d="M95.76,35.47c.58.09,1.17.17,1.73.22a1.84,1.84,0,0,0,1.48-.5l0,0c.1-.14.2-.28.32-.43s0,0,0,0c3-4.19,2.56-6,1.74-7.46-1,.21-4.15.86-5.36.93C93.76,28.3,93.54,31.46,95.76,35.47Z"/></g><path id="Path_10188" data-name="Path 10188" class="cls-9" d="M83.68,33.61a2.53,2.53,0,0,0,2,.73l6.17-.51a3.19,3.19,0,0,0,2.91-3.45l-.75-9-10.07.84Z"/><path id="Path_10190" data-name="Path 10190" class="cls-10" d="M81.25,18.48a11.33,11.33,0,0,1,15.69-3.2A11.49,11.49,0,0,1,99,17a11.77,11.77,0,0,1,2.46,3.76l-8,.67.75,9a3.19,3.19,0,0,1-2.92,3.44l-6.16.52a2.54,2.54,0,0,1-2-.74c-1.92-1.9-3.67-4.38-3.9-7.22A12.19,12.19,0,0,1,81.25,18.48Z"/><path id="Path_10191" data-name="Path 10191" class="cls-11" d="M93.06,17.49l.33,3.94L104,20.55a.55.55,0,0,0,.5-.61.54.54,0,0,0-.37-.47L99.85,18l-.16-1.07Z"/><path id="Path_10192" data-name="Path 10192" class="cls-12" d="M93.06,17.49l.28,3.28A12.26,12.26,0,0,1,99.85,18l-.16-1.07Z"/><path id="Path_10193" data-name="Path 10193" class="cls-13" d="M94.17,18.64a.4.4,0,0,0,.44.38.41.41,0,1,0-.07-.82h0A.4.4,0,0,0,94.17,18.64Z"/></g><g id="Group_78" data-name="Group 78"><path id="Path_355" data-name="Path 355" class="cls-14" d="M96.73,151.41l-4.66-.19c.2,1-.93,2.79-1,3.8a2.91,2.91,0,0,0,0,.59,5,5,0,0,0,2.37,1.52c2.71.87,8.38,3,9.26,3a4.17,4.17,0,0,0,2-.36,8,8,0,0,0-1.87-2.18c-1.24-1.08-3.51-4.69-5-5.65C96.9,151.35,97.91,151.52,96.73,151.41Z"/><path id="Path_355-2" data-name="Path 355" class="cls-14" d="M75.32,151.09l-4.66.19c.28,1-.7,2.86-.66,3.87a3,3,0,0,0,0,.59,5.16,5.16,0,0,0,2.49,1.32c2.77.65,8.59,2.29,9.47,2.27a4.11,4.11,0,0,0,2-.52,7.93,7.93,0,0,0-2-2c-1.32-1-3.88-4.39-5.39-5.24C75.48,151,76.5,151.11,75.32,151.09Z"/></g><path class="cls-15" d="M71.88,47.19S48.28,81.92,46,133.39c2.11-2.93,6.08-9.93,16-13.77s14.87-1.82,25.06-6,23.75-.56,23.75-.56S85.92,72.93,85,36.07C82.62,35.24,71.88,47.19,71.88,47.19Z"/><path class="cls-16" d="M104.74,59c-.26,1.85,1,10.12-.28,11.75-.43.65-2,.39-2.45,1.36s1.14,9,1.14,9,2.29-1.33,4.13-6.12c.91-2.36,1.44-4.18,2.22-6.35a89,89,0,0,0,3-9.1l-3.08-3.37S105,57.15,104.74,59Z"/><path class="cls-17" d="M95.89,38.37c6,.85,7.7,4.08,7.7,4.08s7.22,5.77,8,8c1.13,3.22.85,9.08.85,9.08s-4.17-2.7-7.71-.53a18,18,0,0,1,1.54-6.86,32,32,0,0,0-11-.43C93.78,52.83,94.58,38.34,95.89,38.37Z"/><path class="cls-18" d="M106.28,52.13s3.35-2.63,5-1.32A11.52,11.52,0,0,0,106.28,52.13Z"/><path class="cls-14" d="M104.66,83.73C103.27,83,88.84,93.85,89.54,95.41s2.36,16.83,2.18,20,.35,25.34.44,28.38c2.52,3.91,5.88.84,5.88.84"/><path class="cls-14" d="M77.21,122.82c-1.54,3.39-2.29,18-3.95,23.1,7.31-.66,5.45-.65,5.33.3,2.06-4.26,7-20.6,7-20.6a107.83,107.83,0,0,1,4.79-26.86c1.48-1.39,0-8.94,0-8.94l-9.9-4.58L75.13,88.3"/><path class="cls-14" d="M78.76,81s-4,6.57-3.63,7.82c15.78,3,15.26,8.94,15.26,10,9.38-.43,14.07-15.07,14.07-15.07l-.95-6Z"/><path class="cls-14" d="M79.71,78.45,78.76,81s2.32,3.06,10.08,2.7c10-.85,14.67-6,14.67-6l-.36-3.85Z"/><path class="cls-19" d="M81.1,38.67c-2,3-6.48,6.34-7.84,7.9s-.67,11.8-.21,15.89,6.92,9,6.66,16c1.21.52,3.12,2.34,9.38,1.82s12.46-4,14.2-5.18c-.67-3.76.3-16,.3-16s2.19-5.53,1.49-9.26-8.91-10.28-8.91-10.28l-3.65,1.13s.59,3.54-.93,3.88C86.7,44.81,84.92,39.45,81.1,38.67Z"/><path class="cls-20" d="M93.48,41.55s2.49,2.3,3.34,1.91-.57-3.6-.57-3.6Z"/><polygon class="cls-13" points="96.17 31.43 97.09 30.58 96.93 31.43 96.17 31.43"/><path class="cls-16" d="M70.85,78.44s6.14,6,6.78,6.26,2-1.75,3.17-1c.32.24.69,1.49,1.34,2.44.91,1.31,2.09,2.42,2,2.94-.08.9-.5,1.21-1.39,2.07s-3.29,1-4.72.79-1.92-1.43-3-2.3a79,79,0,0,0-9-5.29Z"/><path class="cls-17" d="M74.42,46.4c-4,0-7.28,5.84-8.23,9.23-.79,3.25-9,13.67-10.31,16.73-1,2.52,1.54,5.43,2.88,7s6,4.36,7.32,4.95,6.1-3.13,4.77-5.91c-2.51-2.23-3.12-5.06-5.29-5.47,7.79-6.27,6.75-11.16,12.34-14.59,1-.61.53-6.71-.45-9S75.61,46.42,74.42,46.4Z"/><path class="cls-21" d="M99.38,78.73a2.16,2.16,0,0,1-1,1.71c-.54.32-1,.06-1-.57a2.18,2.18,0,0,1,1-1.71C98.94,77.84,99.38,78.1,99.38,78.73Z"/><path class="cls-22" d="M81.1,38.67c2.67,2.11,6.41,7.49,4.31,9.28s-9.06-3.26-13.53-.76c1.6-3.29,5.44-4.52,5.44-4.52S78.56,39.28,81.1,38.67Z"/></svg>